<svg xmlns="http://www.w3.org/2000/svg" xmlns:xlink="http://www.w3.org/1999/xlink" id="Layer_1" x="0" y="0" enable-background="new 0 0 50 50" version="1.1" viewBox="0 0 50 50" xml:space="preserve"><path fill="none" stroke="#002145" stroke-miterlimit="10" stroke-width="2" d="M41.2,1H2.8C1.8,1,1,1.8,1,2.8V8h42V2.8	C43,1.8,42.2,1,41.2,1z"/><polyline fill="none" stroke="#002145" stroke-linecap="round" stroke-linejoin="round" stroke-miterlimit="10" stroke-width="2" points="27 40 1 40 1 8"/><line x1="43" x2="43" y1="8" y2="27" fill="none" stroke="#002145" stroke-linecap="round" stroke-linejoin="round" stroke-miterlimit="10" stroke-width="2"/><line x1="14" x2="37" y1="16" y2="16" fill="none" stroke="#002145" stroke-linejoin="round" stroke-miterlimit="10" stroke-width="2"/><line x1="7" x2="11" y1="16" y2="16" fill="none" stroke="#002145" stroke-linejoin="round" stroke-miterlimit="10" stroke-width="2"/><line x1="14" x2="37" y1="21" y2="21" fill="none" stroke="#002145" stroke-linejoin="round" stroke-miterlimit="10" stroke-width="2"/><line x1="7" x2="11" y1="21" y2="21" fill="none" stroke="#002145" stroke-linejoin="round" stroke-miterlimit="10" stroke-width="2"/><line x1="14" x2="37" y1="26" y2="26" fill="none" stroke="#002145" stroke-linejoin="round" stroke-miterlimit="10" stroke-width="2"/><line x1="7" x2="11" y1="26" y2="26" fill="none" stroke="#002145" stroke-linejoin="round" stroke-miterlimit="10" stroke-width="2"/><line x1="14" x2="30" y1="31" y2="31" fill="none" stroke="#002145" stroke-linejoin="round" stroke-miterlimit="10" stroke-width="2"/><line x1="7" x2="11" y1="31" y2="31" fill="none" stroke="#002145" stroke-linejoin="round" stroke-miterlimit="10" stroke-width="2"/><line x1="35" x2="45" y1="40" y2="40" fill="none" stroke="#002145" stroke-miterlimit="10" stroke-width="2"/><line x1="40" x2="40" y1="35" y2="45" fill="none" stroke="#002145" stroke-miterlimit="10" stroke-width="2"/><circle cx="40" cy="40" r="9" fill="none" stroke="#002145" stroke-linecap="round" stroke-miterlimit="10" stroke-width="2"/></svg>