<svg xmlns="http://www.w3.org/2000/svg" xmlns:xlink="http://www.w3.org/1999/xlink" id="Layer_1" width="50" height="50" x="0" y="0" enable-background="new 0 0 50 50" version="1.1" viewBox="0 0 50 50" xml:space="preserve"><path fill="none" stroke="#002145" stroke-linecap="round" stroke-miterlimit="10" stroke-width="2" d="M37,2L25,14v34h24V14L37,2z"/><rect width="6" height="6" x="29" y="17" fill="none" stroke="#002145" stroke-linecap="round" stroke-miterlimit="10" stroke-width="2"/><rect width="6" height="6" x="39" y="17" fill="none" stroke="#002145" stroke-linecap="round" stroke-miterlimit="10" stroke-width="2"/><rect width="6" height="6" x="29" y="27" fill="none" stroke="#002145" stroke-linecap="round" stroke-miterlimit="10" stroke-width="2"/><rect width="6" height="6" x="39" y="27" fill="none" stroke="#002145" stroke-linecap="round" stroke-miterlimit="10" stroke-width="2"/><rect width="6" height="6" x="29" y="37" fill="none" stroke="#002145" stroke-linecap="round" stroke-miterlimit="10" stroke-width="2"/><rect width="6" height="6" x="39" y="37" fill="none" stroke="#002145" stroke-linecap="round" stroke-miterlimit="10" stroke-width="2"/><path fill="none" stroke="#002145" stroke-linecap="round" stroke-miterlimit="10" stroke-width="2" d="M13,2L1,14v34h24V14L13,2z"/><rect width="6" height="6" x="5" y="17" fill="none" stroke="#002145" stroke-linecap="round" stroke-miterlimit="10" stroke-width="2"/><rect width="6" height="6" x="15" y="17" fill="none" stroke="#002145" stroke-linecap="round" stroke-miterlimit="10" stroke-width="2"/><rect width="6" height="6" x="5" y="27" fill="none" stroke="#002145" stroke-linecap="round" stroke-miterlimit="10" stroke-width="2"/><rect width="6" height="6" x="15" y="27" fill="none" stroke="#002145" stroke-linecap="round" stroke-miterlimit="10" stroke-width="2"/><rect width="6" height="6" x="5" y="37" fill="none" stroke="#002145" stroke-linecap="round" stroke-miterlimit="10" stroke-width="2"/><rect width="6" height="6" x="15" y="37" fill="none" stroke="#002145" stroke-linecap="round" stroke-miterlimit="10" stroke-width="2"/></svg>