<svg xmlns="http://www.w3.org/2000/svg" xmlns:xlink="http://www.w3.org/1999/xlink" id="Слой_1" width="48" height="48" x="0" y="0" enable-background="new 0 0 48 48" version="1.1" viewBox="0 0 48 48" xml:space="preserve" style="fill:#2ecc71"><circle cx="24" cy="24" r="19" fill="#FFC107"/><g><path fill="#FFF8E1" d="M17,34V14h8.201c2.408,0,4.234,0.465,5.48,1.395c1.245,0.929,1.867,2.291,1.867,4.086 c0,0.98-0.25,1.843-0.749,2.59c-0.5,0.746-1.194,1.293-2.086,1.641c1.018,0.257,1.82,0.774,2.406,1.553S33,26.994,33,28.121 c0,1.923-0.608,3.379-1.827,4.368S28.219,33.981,25.965,34H17z M21,22h4.364c2.063-0.036,3.095-0.824,3.095-2.445 c0-0.906-0.261-1.559-0.784-1.957C27.152,17.199,26.327,17,25.201,17H21V22z M21,25v6h4.842C26.806,31,29,30.531,29,28.391 S27.881,25.027,26,25H21z"/><rect width="3" height="5" x="20" y="11" fill="#FFF8E1"/><rect width="3" height="5" x="25" y="11" fill="#FFF8E1"/><rect width="3" height="5" x="20" y="32" fill="#FFF8E1"/><rect width="3" height="5" x="25" y="32" fill="#FFF8E1"/></g></svg>