<svg xmlns="http://www.w3.org/2000/svg" xmlns:xlink="http://www.w3.org/1999/xlink" id="Layer_1" width="50" height="50" x="0" y="0" enable-background="new 0 0 50 50" version="1.1" viewBox="0 0 50 50" xml:space="preserve"><g><circle cx="39" cy="44" r="5" fill="none" stroke="#002145" stroke-miterlimit="10" stroke-width="2"/></g><g><circle cx="11" cy="44" r="5" fill="none" stroke="#002145" stroke-miterlimit="10" stroke-width="2"/></g><path fill="none" stroke="#002145" stroke-miterlimit="10" stroke-width="2" d="M44,44h3c1.059,0,2-0.941,2-2v-6c0-1.91-6-4-11-5	c-1.68-0.336-6-6-6-6c-1-1-2-2-4-2H14.132c-3.212,0-4.01,8-8.132,8c-1.11,0-2,0-2,0c-1.681,0-3,0.781-3,3v8.308	C1,43.367,1.941,44,3,44h3 M16,44h18"/><line x1="5" x2="38" y1="31" y2="31" fill="none" stroke="#002145" stroke-linecap="round" stroke-linejoin="round" stroke-miterlimit="10" stroke-width="2"/><line x1="22" x2="22" y1="23" y2="31" fill="none" stroke="#002145" stroke-miterlimit="10" stroke-width="2"/></svg>