<svg xmlns="http://www.w3.org/2000/svg" xmlns:xlink="http://www.w3.org/1999/xlink" id="Layer_1" width="50" height="50" x="0" y="0" enable-background="new 0 0 50 50" version="1.1" viewBox="0 0 50 50" xml:space="preserve"><rect width="14" height="6" x="18" y="21" fill="none" stroke="#002145" stroke-linecap="round" stroke-miterlimit="10" stroke-width="2"/><path fill="none" stroke="#002145" stroke-linecap="round" stroke-miterlimit="10" stroke-width="2" d="M39,37c0,1.105-0.895,2-2,2	h-3c-1.105,0-2-0.895-2-2V11c0-1.105,0.895-2,2-2h3c1.105,0,2,0.895,2,2V37z"/><path fill="none" stroke="#002145" stroke-linecap="round" stroke-miterlimit="10" stroke-width="2" d="M39,13h4	c1.105,0,2,0.895,2,2v18c0,1.105-0.895,2-2,2h-4"/><path fill="none" stroke="#002145" stroke-linecap="round" stroke-miterlimit="10" stroke-width="2" d="M45,27h3	c0.552,0,1-0.448,1-1c0-0.552,0-3.448,0-4c0-0.552-0.448-1-1-1h-3"/><path fill="none" stroke="#002145" stroke-linecap="round" stroke-miterlimit="10" stroke-width="2" d="M11,37c0,1.105,0.895,2,2,2	h3c1.105,0,2-0.895,2-2V11c0-1.105-0.895-2-2-2h-3c-1.105,0-2,0.895-2,2V37z"/><path fill="none" stroke="#002145" stroke-linecap="round" stroke-miterlimit="10" stroke-width="2" d="M11,13H7	c-1.105,0-2,0.895-2,2v18c0,1.105,0.895,2,2,2h4"/><path fill="none" stroke="#002145" stroke-linecap="round" stroke-miterlimit="10" stroke-width="2" d="M5,27H2	c-0.552,0-1-0.448-1-1c0-0.552,0-3.448,0-4c0-0.552,0.448-1,1-1h3"/></svg>