<svg xmlns="http://www.w3.org/2000/svg" xmlns:xlink="http://www.w3.org/1999/xlink" id="Layer_1" x="0" y="0" enable-background="new 0 0 50 50" version="1.1" viewBox="0 0 50 50" xml:space="preserve"><path fill="none" stroke="#002145" stroke-miterlimit="10" stroke-width="2" d="M43,44H7c-1.1,0-2-0.9-2-2V16c0-1.1,0.9-2,2-2h36	c1.1,0,2,0.9,2,2v26C45,43.1,44.1,44,43,44z"/><rect width="18" height="12" x="16" y="23" fill="none" stroke="#002145" stroke-miterlimit="10" stroke-width="2"/><line x1="27" x2="27" y1="14" y2="11" fill="none" stroke="#002145" stroke-miterlimit="10" stroke-width="2"/><line x1="23" x2="23" y1="14" y2="11" fill="none" stroke="#002145" stroke-miterlimit="10" stroke-width="2"/><line x1="5" x2="14" y1="29" y2="29" fill="none" stroke="#002145" stroke-miterlimit="10" stroke-width="2"/><line x1="36" x2="45" y1="29" y2="29" fill="none" stroke="#002145" stroke-miterlimit="10" stroke-width="2"/><path fill="none" stroke="#002145" stroke-miterlimit="10" stroke-width="2" d="M20,6v4c0,0.6,0.4,1,1,1h8c0.6,0,1-0.4,1-1V6	c0-0.6-0.4-1-1-1h-8C20.4,5,20,5.4,20,6z"/><circle cx="25" cy="8" r="1"/></svg>