<svg xmlns="http://www.w3.org/2000/svg" xmlns:xlink="http://www.w3.org/1999/xlink" id="Layer_1" width="50" height="50" x="0" y="0" enable-background="new 0 0 50 50" version="1.1" viewBox="0 0 50 50" xml:space="preserve"><line x1="25" x2="25" y1="4.231" y2="1" fill="none" stroke="#000" stroke-linecap="round" stroke-miterlimit="10" stroke-width="2"/><path fill="none" stroke="#000" stroke-linecap="round" stroke-linejoin="round" stroke-miterlimit="10" stroke-width="2" d="M13,43c0,3.314,2.687,6,6,6s6-2.686,6-6V23"/><path fill="none" stroke="#000" stroke-linecap="round" stroke-linejoin="round" stroke-miterlimit="10" stroke-width="2" d="M10,22c3.119,0,5.863,1.59,7.479,4h0.043c1.615-2.41,4.359-4,7.479-4s5.863,1.59,7.479,4h0.043c1.615-2.41,4.359-4,7.479-4	c4.547,0,8,4,8,4C48,13.42,37.703,5,25,5S2,13.42,2,26C2,26,4.546,22,10,22z"/></svg>