<svg xmlns="http://www.w3.org/2000/svg" xmlns:xlink="http://www.w3.org/1999/xlink" id="Layer_1" width="50" height="50" x="0" y="0" fill="#012145" enable-background="new 0 0 50 50" version="1.1" viewBox="0 0 50 50" xml:space="preserve"><circle cx="25" cy="25" r="5" fill="none" stroke="#012145" stroke-linejoin="round" stroke-miterlimit="10" stroke-width="2"/><path fill="none" stroke="#012145" stroke-linejoin="round" stroke-miterlimit="10" stroke-width="2" d="M25,1 c-5.262,0-9.231,10.318-9.231,24S19.738,49,25,49c5.262,0,9.231-10.318,9.231-24S30.262,1,25,1z"/><path fill="none" stroke="#012145" stroke-linejoin="round" stroke-miterlimit="10" stroke-width="2" d="M4.214,12.999 c-2.63,4.557,4.32,13.153,16.17,19.994C32.233,39.834,43.153,41.556,45.784,37c2.63-4.558-4.32-13.154-16.168-19.995 C17.765,10.164,6.845,8.442,4.214,12.999z"/><path fill="none" stroke="#012145" stroke-linejoin="round" stroke-miterlimit="10" stroke-width="2" d="M4.215,36.998 c2.632,4.558,13.55,2.836,25.401-4.006C41.465,26.152,48.415,17.556,45.786,13c-2.632-4.557-13.551-2.836-25.401,4.004 C8.535,23.846,1.585,32.442,4.215,36.998z"/></svg>