<svg xmlns="http://www.w3.org/2000/svg" xmlns:xlink="http://www.w3.org/1999/xlink" id="Layer_1" width="50" height="50" x="0" y="0" enable-background="new 0 0 50 50" version="1.1" viewBox="0 0 50 50" xml:space="preserve"><g><g><circle cx="18" cy="42.5" r="1.5" fill="#002145"/></g><polyline fill="none" stroke="#002145" stroke-linejoin="round" stroke-miterlimit="10" stroke-width="2" points="25 39 5 39 5 6 31 6 31 14"/><path fill="none" stroke="#002145" stroke-linejoin="round" stroke-miterlimit="10" stroke-width="2" d="M25,46H4 c-1.657,0-3-1.343-3-3V5c0-1.657,1.343-3,3-3h28c1.657,0,3,1.343,3,3v9"/></g><g><path fill="none" stroke="#002145" stroke-linecap="round" stroke-linejoin="round" stroke-miterlimit="10" stroke-width="2" d="M49,47c0,1.105-0.895,2-2,2H29c-1.105,0-2-0.895-2-2V18c0-1.105,0.895-2,2-2h18c1.105,0,2,0.895,2,2V47z"/><rect width="14" height="22" x="31" y="20" fill="none" stroke="#002145" stroke-linecap="round" stroke-linejoin="round" stroke-miterlimit="10" stroke-width="2"/><g><circle cx="38" cy="45.5" r="1.5" fill="#002145"/></g></g></svg>