<svg xmlns="http://www.w3.org/2000/svg" xmlns:xlink="http://www.w3.org/1999/xlink" id="Layer_1" x="0" y="0" enable-background="new 0 0 50 50" version="1.0" viewBox="0 0 50 50" xml:space="preserve"><line x1="25" x2="25" y1="43.5" y2="26" fill="none" stroke="#333" stroke-linecap="round" stroke-linejoin="round" stroke-miterlimit="10" stroke-width="2"/><path fill="none" stroke="#333" stroke-linecap="round" stroke-linejoin="round" stroke-miterlimit="10" stroke-width="2" d="M49,29c0,0-3.4-3.7-8.1-3.7c-4.7,0-8.4,3.7-8.4,3.7s-2.8-3.7-7.5-3.7S17.5,29,17.5,29s-3.9-3.7-8.4-3.7C4.5,25.3,1,29,1,29	C1,15.8,11.7,7,25,7C38.3,7,49,15.8,49,29z"/><line x1="25" x2="25" y1="6.9" y2="2" fill="none" stroke="#333" stroke-linecap="round" stroke-linejoin="round" stroke-miterlimit="10" stroke-width="2"/><path fill="none" stroke="#333" stroke-linecap="round" stroke-linejoin="round" stroke-miterlimit="10" stroke-width="2" d="M14,43.5c0,3,2.5,5.5,5.5,5.5c3,0,5.5-2.5,5.5-5.5"/><path fill="none" stroke="#333" stroke-linecap="round" stroke-linejoin="round" stroke-miterlimit="10" stroke-width="2" d="M49,6.5C49,7.9,47.9,9,46.5,9C45.1,9,44,7.9,44,6.5S46.5,1,46.5,1S49,5.1,49,6.5z"/><path fill="none" stroke="#333" stroke-linecap="round" stroke-linejoin="round" stroke-miterlimit="10" stroke-width="2" d="M6,8.5C6,9.9,4.9,11,3.5,11C2.1,11,1,9.9,1,8.5S3.5,3,3.5,3S6,7.1,6,8.5z"/></svg>