<svg xmlns="http://www.w3.org/2000/svg" xmlns:xlink="http://www.w3.org/1999/xlink" width="106" height="96" version="1.1" viewBox="0 0 106 96"><title>convert</title><desc>Created with Sketch.</desc><defs><polygon id="path-1" points="17.251 .095 .441 .095 .441 17.466 17.251 17.466 17.251 .095"/><polygon id="path-3" points="0 96.905 105.58 96.905 105.58 1 0 1"/></defs><g id="Page-1" fill="none" fill-rule="evenodd" stroke="none" stroke-width="1"><g id="convert" transform="translate(0.000000, -1.000000)"><path id="Fill-1" fill="#E4C695" d="M73.4414,16.3716 L73.4414,9.4046 C73.4414,5.8656 76.3074,2.9996 79.8464,2.9996 C83.3844,2.9996 86.2514,5.8656 86.2514,9.4046 L86.2514,16.3716 L73.4414,16.3716 L73.4414,16.3716 Z"/><g id="Group-5" transform="translate(71.000000, 0.905300)"><mask id="mask-2" fill="#fff"><use xlink:href="#path-1"/></mask><path id="Fill-3" fill="#E4C695" d="M4.4414,13.4663 L13.2514,13.4663 L13.2514,8.4993 C13.2514,6.0703 11.2754,4.0943 8.8464,4.0943 C6.4174,4.0943 4.4414,6.0703 4.4414,8.4993 L4.4414,13.4663 Z M17.2514,17.4663 L0.4414,17.4663 L0.4414,8.4993 C0.4414,3.8643 4.2114,0.0943 8.8464,0.0943 C13.4814,0.0943 17.2514,3.8643 17.2514,8.4993 L17.2514,17.4663 Z" mask="url(#mask-2)"/></g><path id="Fill-6" fill="#FFF" d="M73.4414,9.4048 L73.4414,81.0188 L73.4214,81.0188 L73.4414,82.0888 C73.4414,85.3748 70.9494,88.0778 67.7624,88.4468 C66.0184,88.4468 10.9904,88.4358 8.1424,88.4468 C11.3304,88.0778 13.8034,85.3748 13.8034,82.0888 L13.8034,80.6288 L13.8274,80.6288 L13.8274,9.4048 C13.8274,6.1168 16.2984,3.4138 19.4864,3.0468 C21.2284,3.0468 76.2554,3.0588 79.1034,3.0468 C75.9174,3.4138 73.4414,6.1168 73.4414,9.4048"/><path id="Fill-8" fill="#282D33" d="M24.4775,86.4419 L67.6365,86.4469 C69.8135,86.1439 71.4415,84.2879 71.4415,82.0889 L71.3845,79.0189 L71.4415,79.0189 L71.4415,9.4049 C71.4415,7.8169 71.8825,6.3249 72.6555,5.0509 C69.9335,5.0509 66.5315,5.0519 62.7685,5.0519 L19.6125,5.0459 C17.4475,5.3479 15.8275,7.2039 15.8275,9.4049 L15.8275,82.6289 L15.7865,82.6289 C15.6985,84.0149 15.2735,85.3139 14.5885,86.4429 C17.3115,86.4419 20.7145,86.4419 24.4775,86.4419 L24.4775,86.4419 Z M67.8775,90.4469 L24.4775,90.4419 C15.8415,90.4419 9.0995,90.4429 8.1505,90.4469 L7.9125,86.4609 C10.1305,86.2039 11.8035,84.3239 11.8035,82.0889 L11.8275,9.4049 C11.8275,5.1359 15.0215,1.5479 19.2565,1.0589 L19.4865,1.0459 L62.7685,1.0519 C71.4045,1.0519 78.1455,1.0499 79.0945,1.0459 L79.3325,5.0329 C77.1145,5.2899 75.4415,7.1689 75.4415,9.4049 L75.4415,83.0189 L75.3865,83.0189 C74.9495,86.8809 71.9165,89.9799 67.9935,90.4339 L67.8775,90.4469 Z"/><path id="Fill-10" fill="#E4C695" d="M61.6162,78.8701 L61.6162,82.0891 C61.6162,85.3751 64.0902,88.0781 67.2772,88.4471 C64.4312,88.4361 9.4022,88.4471 7.6602,88.4471 C4.4722,88.0781 2.0002,85.3751 2.0002,82.0891 L2.0002,78.8701 L61.6162,78.8701 Z"/><path id="Fill-12" fill="#E4C695" d="M4,80.8701 L4,82.0891 C4,84.2891 5.62,86.1441 7.786,86.4471 L50.943,86.4421 C54.705,86.4421 58.108,86.4421 60.831,86.4431 C60.058,85.1681 59.616,83.6761 59.616,82.0891 L59.616,80.8701 L4,80.8701 Z M7.66,90.4471 L7.43,90.4341 C3.194,89.9431 0,86.3561 0,82.0891 L0,76.8701 L63.616,76.8701 L63.616,82.0891 C63.616,84.3241 65.289,86.2031 67.508,86.4601 L67.27,90.4471 C66.321,90.4431 59.577,90.4421 50.943,90.4421 L7.66,90.4471 Z"/><path id="Fill-14" fill="#282D33" d="M88.2519,18.3633 L84.2519,18.3633 L84.2519,9.4053 C84.2519,6.9753 82.2759,5.0003 79.8469,5.0003 C77.4179,5.0003 75.4419,6.9753 75.4419,9.4053 L71.4419,9.4053 C71.4419,4.7703 75.2119,1.0003 79.8469,1.0003 C84.4819,1.0003 88.2519,4.7703 88.2519,9.4053 L88.2519,18.3633 Z"/><path id="Fill-16" fill="#282D33" d="M67.6465,90.4473 C63.3695,90.4473 59.6165,86.5413 59.6165,82.0893 L59.6165,76.9053 L63.6165,76.9053 L63.6165,82.0893 C63.6165,84.2893 65.6125,86.4473 67.6465,86.4473 L67.6465,90.4473 Z"/><mask id="mask-4" fill="#fff"><use xlink:href="#path-3"/></mask><polygon id="Fill-18" fill="#282D33" points="32.771 18.412 65.257 18.412 65.257 14.412 32.771 14.412" mask="url(#mask-4)"/><polygon id="Fill-20" fill="#282D33" points="32.771 25.843 46.007 25.843 46.007 21.843 32.771 21.843" mask="url(#mask-4)"/><polygon id="Fill-21" fill="#AEB5B6" points="21.606 21.644 28.814 21.644 28.814 14.436 21.606 14.436" mask="url(#mask-4)"/><polygon id="Fill-22" fill="#282D33" points="32.771 38.598 46.007 38.598 46.007 34.598 32.771 34.598" mask="url(#mask-4)"/><polygon id="Fill-23" fill="#282D33" points="32.771 46.031 46.007 46.031 46.007 42.031 32.771 42.031" mask="url(#mask-4)"/><polygon id="Fill-24" fill="#AEB5B6" points="21.606 41.832 28.814 41.832 28.814 34.624 21.606 34.624" mask="url(#mask-4)"/><polygon id="Fill-25" fill="#282D33" points="32.771 58.598 46.007 58.598 46.007 54.598 32.771 54.598" mask="url(#mask-4)"/><polygon id="Fill-26" fill="#282D33" points="32.771 66.031 46.007 66.031 46.007 62.031 32.771 62.031" mask="url(#mask-4)"/><polygon id="Fill-27" fill="#AEB5B6" points="21.606 61.832 28.814 61.832 28.814 54.624 21.606 54.624" mask="url(#mask-4)"/><path id="Fill-28" fill="#FFF" d="M103.5801,94.0796 C103.5801,94.5356 103.2121,94.9056 102.7571,94.9056 L52.6791,94.9056 C52.2241,94.9056 51.8561,94.5356 51.8561,94.0796 L51.8561,24.6756 C51.8561,24.2216 52.2241,23.8506 52.6791,23.8506 L102.7571,23.8506 C103.2121,23.8506 103.5801,24.2216 103.5801,24.6756 L103.5801,94.0796 Z" mask="url(#mask-4)"/><path id="Fill-29" fill="#282D33" d="M53.856,92.9053 L101.58,92.9053 L101.58,25.8503 L53.856,25.8503 L53.856,92.9053 Z M102.757,96.9053 L52.679,96.9053 C51.122,96.9053 49.856,95.6373 49.856,94.0793 L49.856,24.6753 C49.856,23.1183 51.122,21.8503 52.679,21.8503 L102.757,21.8503 C104.313,21.8503 105.58,23.1183 105.58,24.6753 L105.58,94.0793 C105.58,95.6373 104.313,96.9053 102.757,96.9053 L102.757,96.9053 Z" mask="url(#mask-4)"/><path id="Fill-30" fill="#FFF" d="M103.5801,33.0088 L103.5801,88.2058 C103.5801,88.6638 103.2121,89.0318 102.7571,89.0318 L52.6791,89.0318 C52.2241,89.0318 51.8561,88.6638 51.8561,88.2058 L51.8561,33.0088" mask="url(#mask-4)"/><path id="Fill-31" fill="#282D33" d="M102.7568,91.0322 L52.6788,91.0322 C51.1218,91.0322 49.8568,89.7652 49.8568,88.2062 L49.8568,33.0092 L53.8568,33.0092 L53.8568,87.0322 L101.5798,87.0322 L101.5798,33.0092 L105.5798,33.0092 L105.5798,88.2062 C105.5798,89.7652 104.3138,91.0322 102.7568,91.0322" mask="url(#mask-4)"/><polygon id="Fill-32" fill="#AEB5B6" points="58.939 43.397 96.496 43.397 96.496 34.392 58.939 34.392" mask="url(#mask-4)"/><path id="Fill-33" fill="#FFF" d="M58.8486,51.606 L66.0636,51.606" mask="url(#mask-4)"/><polygon id="Fill-34" fill="#282D33" points="58.848 53.606 66.063 53.606 66.063 49.606 58.848 49.606" mask="url(#mask-4)"/><path id="Fill-35" fill="#FFF" d="M69.0234,51.606 L76.2384,51.606" mask="url(#mask-4)"/><polygon id="Fill-36" fill="#282D33" points="69.023 53.606 76.238 53.606 76.238 49.606 69.023 49.606" mask="url(#mask-4)"/><path id="Fill-37" fill="#FFF" d="M79.1972,51.606 L86.4122,51.606" mask="url(#mask-4)"/><polygon id="Fill-38" fill="#282D33" points="79.197 53.606 86.412 53.606 86.412 49.606 79.197 49.606" mask="url(#mask-4)"/><path id="Fill-39" fill="#FFF" d="M89.372,51.606 L96.587,51.606" mask="url(#mask-4)"/><polygon id="Fill-40" fill="#282D33" points="89.372 53.606 96.587 53.606 96.587 49.606 89.372 49.606" mask="url(#mask-4)"/><path id="Fill-41" fill="#FFF" d="M58.8486,58.6533 L66.0636,58.6533" mask="url(#mask-4)"/><polygon id="Fill-42" fill="#282D33" points="58.848 60.653 66.063 60.653 66.063 56.653 58.848 56.653" mask="url(#mask-4)"/><path id="Fill-43" fill="#FFF" d="M69.0234,58.6533 L76.2384,58.6533" mask="url(#mask-4)"/><polygon id="Fill-44" fill="#282D33" points="69.023 60.653 76.238 60.653 76.238 56.653 69.023 56.653" mask="url(#mask-4)"/><path id="Fill-45" fill="#FFF" d="M79.1972,58.6533 L86.4122,58.6533" mask="url(#mask-4)"/><polygon id="Fill-46" fill="#282D33" points="79.197 60.653 86.412 60.653 86.412 56.653 79.197 56.653" mask="url(#mask-4)"/><path id="Fill-47" fill="#FFF" d="M89.372,58.6533 L96.587,58.6533" mask="url(#mask-4)"/><polygon id="Fill-48" fill="#282D33" points="89.372 60.653 96.587 60.653 96.587 56.653 89.372 56.653" mask="url(#mask-4)"/><path id="Fill-49" fill="#FFF" d="M58.8486,65.7012 L66.0636,65.7012" mask="url(#mask-4)"/><polygon id="Fill-50" fill="#282D33" points="58.848 67.701 66.063 67.701 66.063 63.701 58.848 63.701" mask="url(#mask-4)"/><path id="Fill-51" fill="#FFF" d="M69.0234,65.7012 L76.2384,65.7012" mask="url(#mask-4)"/><polygon id="Fill-52" fill="#282D33" points="69.023 67.701 76.238 67.701 76.238 63.701 69.023 63.701" mask="url(#mask-4)"/><path id="Fill-53" fill="#FFF" d="M79.1972,65.7012 L86.4122,65.7012" mask="url(#mask-4)"/><polygon id="Fill-54" fill="#282D33" points="79.197 67.701 86.412 67.701 86.412 63.701 79.197 63.701" mask="url(#mask-4)"/><path id="Fill-55" fill="#FFF" d="M89.372,65.7012 L96.587,65.7012" mask="url(#mask-4)"/><polygon id="Fill-56" fill="#282D33" points="89.372 67.701 96.587 67.701 96.587 63.701 89.372 63.701" mask="url(#mask-4)"/><path id="Fill-57" fill="#FFF" d="M58.8486,72.749 L66.0636,72.749" mask="url(#mask-4)"/><polygon id="Fill-58" fill="#282D33" points="58.848 74.749 66.063 74.749 66.063 70.749 58.848 70.749" mask="url(#mask-4)"/><path id="Fill-59" fill="#FFF" d="M69.0234,72.749 L76.2384,72.749" mask="url(#mask-4)"/><polygon id="Fill-60" fill="#282D33" points="69.023 74.749 76.238 74.749 76.238 70.749 69.023 70.749" mask="url(#mask-4)"/><path id="Fill-61" fill="#FFF" d="M79.1972,72.749 L86.4122,72.749" mask="url(#mask-4)"/><polygon id="Fill-62" fill="#282D33" points="79.197 74.749 86.412 74.749 86.412 70.749 79.197 70.749" mask="url(#mask-4)"/><path id="Fill-63" fill="#FFF" d="M89.372,72.749 L96.587,72.749" mask="url(#mask-4)"/><polygon id="Fill-64" fill="#282D33" points="89.372 74.749 96.587 74.749 96.587 70.749 89.372 70.749" mask="url(#mask-4)"/><path id="Fill-65" fill="#FFF" d="M58.8486,79.7949 L66.0636,79.7949" mask="url(#mask-4)"/><polygon id="Fill-66" fill="#282D33" points="58.848 81.795 66.063 81.795 66.063 77.795 58.848 77.795" mask="url(#mask-4)"/><path id="Fill-67" fill="#FFF" d="M69.0234,79.7949 L76.2384,79.7949" mask="url(#mask-4)"/><polygon id="Fill-68" fill="#282D33" points="69.023 81.795 76.238 81.795 76.238 77.795 69.023 77.795" mask="url(#mask-4)"/><path id="Fill-69" fill="#FFF" d="M79.1972,79.7949 L86.4122,79.7949" mask="url(#mask-4)"/><polygon id="Fill-70" fill="#282D33" points="79.197 81.795 86.412 81.795 86.412 77.795 79.197 77.795" mask="url(#mask-4)"/><path id="Fill-71" fill="#FFF" d="M89.372,79.7949 L96.587,79.7949" mask="url(#mask-4)"/><polygon id="Fill-72" fill="#282D33" points="89.372 81.795 96.587 81.795 96.587 77.795 89.372 77.795" mask="url(#mask-4)"/></g></g></svg>