<svg xmlns="http://www.w3.org/2000/svg" xmlns:xlink="http://www.w3.org/1999/xlink" width="103" height="95" version="1.1" viewBox="0 0 103 95"><title>currencies</title><desc>Created with Sketch.</desc><g id="Page-1" fill="none" fill-rule="evenodd" stroke="none" stroke-width="1"><g id="currencies"><polygon id="Fill-1" fill="#FFF" points="2 92.412 100.5 92.412 100.5 2 2 2"/><path id="Fill-2" fill="#282D33" d="M0,94.4121 L102.5,94.4121 L102.5,0.0001 L0,0.0001 L0,94.4121 Z M4,90.4131 L98.5,90.4131 L98.5,4.0001 L4,4.0001 L4,90.4131 Z"/><polygon id="Fill-3" fill="#FFF" points="2 13.5 100.5 13.5 100.5 2 2 2"/><path id="Fill-4" fill="#282D33" d="M0,15.5001 L102.5,15.5001 L102.5,0.0001 L0,0.0001 L0,15.5001 Z M4,11.5001 L98.5,11.5001 L98.5,4.0001 L4,4.0001 L4,11.5001 Z"/><path id="Fill-5" fill="#FFF" d="M6.4998,7.6683 L10.2378,7.6683 L6.4998,7.6683 Z"/><polygon id="Fill-6" fill="#282D33" points="6.5 9.668 10.237 9.668 10.237 5.668 6.5 5.668"/><path id="Fill-7" fill="#FFF" d="M12.9708,7.6683 L16.7108,7.6683 L12.9708,7.6683 Z"/><polygon id="Fill-8" fill="#282D33" points="12.971 9.668 16.711 9.668 16.711 5.668 12.971 5.668"/><path id="Fill-9" fill="#FFF" d="M19.4427,7.6683 L23.1827,7.6683 L19.4427,7.6683 Z"/><polygon id="Fill-10" fill="#282D33" points="19.443 9.668 23.183 9.668 23.183 5.668 19.443 5.668"/><polygon id="Fill-11" fill="#E4C695" points="10.575 84.4 20.025 84.4 20.025 71.313 10.575 71.313"/><path id="Fill-12" fill="#E4C695" d="M12.575,82.4001 L18.025,82.4001 L18.025,73.3131 L12.575,73.3131 L12.575,82.4001 Z M8.575,86.4001 L22.025,86.4001 L22.025,69.3131 L8.575,69.3131 L8.575,86.4001 Z"/><polygon id="Fill-13" fill="#E4C695" points="10.575 84.401 20.025 84.401 20.025 76.846 10.575 76.846"/><path id="Fill-14" fill="#282D33" d="M12.575,82.4001 L18.025,82.4001 L18.025,78.8451 L12.575,78.8451 L12.575,82.4001 Z M8.575,86.4001 L22.025,86.4001 L22.025,74.8451 L8.575,74.8451 L8.575,86.4001 Z"/><polygon id="Fill-15" fill="#E4C695" points="28.551 84.4 38.001 84.4 38.001 58.813 28.551 58.813"/><path id="Fill-16" fill="#E4C695" d="M30.551,82.4001 L36.001,82.4001 L36.001,60.8131 L30.551,60.8131 L30.551,82.4001 Z M26.551,86.4001 L40.001,86.4001 L40.001,56.8131 L26.551,56.8131 L26.551,86.4001 Z"/><polygon id="Fill-17" fill="#FFF" points="28.551 84.4 38.001 84.4 38.001 70.646 28.551 70.646"/><path id="Fill-18" fill="#282D33" d="M30.551,82.4001 L36.001,82.4001 L36.001,72.6461 L30.551,72.6461 L30.551,82.4001 Z M26.551,86.4001 L40.001,86.4001 L40.001,68.6461 L26.551,68.6461 L26.551,86.4001 Z"/><polygon id="Fill-19" fill="#E4C695" points="46.526 84.4 55.975 84.4 55.975 45.813 46.526 45.813"/><path id="Fill-20" fill="#E4C695" d="M48.525,82.4001 L53.974,82.4001 L53.974,47.8131 L48.525,47.8131 L48.525,82.4001 Z M44.526,86.4001 L57.975,86.4001 L57.975,43.8131 L44.526,43.8131 L44.526,86.4001 Z"/><polygon id="Fill-21" fill="#FFF" points="46.526 84.4 55.975 84.4 55.975 55.146 46.526 55.146"/><path id="Fill-22" fill="#282D33" d="M48.525,82.4001 L53.974,82.4001 L53.974,57.1461 L48.525,57.1461 L48.525,82.4001 Z M44.526,86.4001 L57.975,86.4001 L57.975,53.1461 L44.526,53.1461 L44.526,86.4001 Z"/><polygon id="Fill-23" fill="#E4C695" points="64.501 84.4 73.951 84.4 73.951 41.813 64.501 41.813"/><path id="Fill-24" fill="#E4C695" d="M66.501,82.4001 L71.951,82.4001 L71.951,43.8131 L66.501,43.8131 L66.501,82.4001 Z M62.501,86.4001 L75.951,86.4001 L75.951,39.8131 L62.501,39.8131 L62.501,86.4001 Z"/><polygon id="Fill-25" fill="#FFF" points="64.501 84.4 73.951 84.4 73.951 60.646 64.501 60.646"/><path id="Fill-26" fill="#282D33" d="M66.501,82.4001 L71.951,82.4001 L71.951,62.6461 L66.501,62.6461 L66.501,82.4001 Z M62.501,86.4001 L75.951,86.4001 L75.951,58.6461 L62.501,58.6461 L62.501,86.4001 Z"/><polygon id="Fill-27" fill="#E4C695" points="82.476 84.4 91.926 84.4 91.926 27.98 82.476 27.98"/><path id="Fill-28" fill="#E4C695" d="M84.476,82.4001 L89.926,82.4001 L89.926,29.9801 L84.476,29.9801 L84.476,82.4001 Z M80.476,86.4001 L93.926,86.4001 L93.926,25.9801 L80.476,25.9801 L80.476,86.4001 Z"/><polygon id="Fill-29" fill="#FFF" points="82.476 84.4 91.926 84.4 91.926 35.813 82.476 35.813"/><path id="Fill-30" fill="#282D33" d="M84.476,82.4001 L89.926,82.4001 L89.926,37.8131 L84.476,37.8131 L84.476,82.4001 Z M80.476,86.4001 L93.926,86.4001 L93.926,33.8131 L80.476,33.8131 L80.476,86.4001 Z"/></g></g></svg>